<svg xmlns="http://www.w3.org/2000/svg" width="520" height="360" viewBox="0 0 520 360">
  <rect width="520" height="360" fill="white"/>
  <g font-family="Helvetica, Arial, sans-serif" fill="#243242">
    <text x="260" y="24" text-anchor="middle" font-size="16" font-weight="700">Detection versus false alarms</text>
    <text x="260" y="344" text-anchor="middle" font-size="13">False alarm rate</text>
    <text x="16" y="190" transform="rotate(-90 16 190)" text-anchor="middle" font-size="13">Failure detection rate</text>
  </g>
  <g stroke="#d6dde6" stroke-width="1">
    <line x1="68" y1="296" x2="476" y2="296"/>
    <line x1="68" y1="238" x2="476" y2="238"/>
    <line x1="68" y1="180" x2="476" y2="180"/>
    <line x1="68" y1="122" x2="476" y2="122"/>
    <line x1="68" y1="64" x2="476" y2="64"/>
    <line x1="68" y1="296" x2="68" y2="64"/>
    <line x1="170" y1="296" x2="170" y2="64"/>
    <line x1="272" y1="296" x2="272" y2="64"/>
    <line x1="374" y1="296" x2="374" y2="64"/>
    <line x1="476" y1="296" x2="476" y2="64"/>
  </g>
  <g stroke="#243242" stroke-width="1.3">
    <line x1="68" y1="296" x2="476" y2="296"/>
    <line x1="68" y1="296" x2="68" y2="64"/>
  </g>
  <g font-family="Helvetica, Arial, sans-serif" fill="#4b5866" font-size="11">
    <text x="68" y="314" text-anchor="middle">0.25</text>
    <text x="170" y="314" text-anchor="middle">0.45</text>
    <text x="272" y="314" text-anchor="middle">0.65</text>
    <text x="374" y="314" text-anchor="middle">0.85</text>
    <text x="476" y="314" text-anchor="middle">1.00</text>
    <text x="60" y="300" text-anchor="end">0.65</text>
    <text x="60" y="242" text-anchor="end">0.75</text>
    <text x="60" y="184" text-anchor="end">0.85</text>
    <text x="60" y="126" text-anchor="end">0.95</text>
    <text x="60" y="68" text-anchor="end">1.00</text>
  </g>
  <g fill="none" stroke-width="3" stroke-linecap="round" stroke-linejoin="round">
    <polyline stroke="#2563eb" points="111,117 224,68 476,64"/>
    <polyline stroke="#16a34a" points="111,103 224,64 476,64"/>
    <polyline stroke="#dc2626" points="111,155 224,68 476,64"/>
    <polyline stroke="#7c3aed" points="111,211 224,78 476,64"/>
  </g>
  <g font-family="Helvetica, Arial, sans-serif" font-size="10" fill="#243242">
    <g fill="#2563eb">
      <circle cx="111" cy="117" r="5"/><circle cx="224" cy="68" r="5"/><circle cx="476" cy="64" r="5"/>
    </g>
    <g fill="#16a34a">
      <rect x="106" y="98" width="10" height="10"/><rect x="219" y="59" width="10" height="10"/><rect x="471" y="59" width="10" height="10"/>
    </g>
    <g fill="#dc2626">
      <path d="M111 148 L117 160 L105 160 Z"/><path d="M224 61 L230 73 L218 73 Z"/><path d="M476 57 L482 69 L470 69 Z"/>
    </g>
    <g fill="#7c3aed">
      <path d="M111 204 L118 211 L111 218 L104 211 Z"/><path d="M224 71 L231 78 L224 85 L217 78 Z"/><path d="M476 57 L483 64 L476 71 L469 64 Z"/>
    </g>
    <text x="115" y="131">0.60</text><text x="228" y="84">0.45</text><text x="450" y="82">0.30</text>
  </g>
  <g font-family="Helvetica, Arial, sans-serif" font-size="11" fill="#243242">
    <rect x="302" y="208" width="164" height="78" fill="white" stroke="#d6dde6"/>
    <circle cx="318" cy="226" r="5" fill="#2563eb"/><text x="332" y="230">default</text>
    <rect x="313" y="239" width="10" height="10" fill="#16a34a"/><text x="332" y="249">semantic heavy</text>
    <path d="M318 260 L324 272 L312 272 Z" fill="#dc2626"/><text x="332" y="270">retrieval heavy</text>
    <path d="M318 278 L325 285 L318 292 L311 285 Z" fill="#7c3aed"/><text x="332" y="289">extraction heavy</text>
  </g>
</svg>
