<svg xmlns="http://www.w3.org/2000/svg" width="980" height="460" viewBox="0 0 980 460">
<rect width="100%" height="100%" fill="white"/>
<text x="490.0" y="30" text-anchor="middle" font-family="Arial" font-size="20" font-weight="700">Hybrid Residual Deletion Risk</text>
<line x1="230.0" y1="56" x2="230.0" y2="410" stroke="#e8e8e8"/>
<text x="230.0" y="436" text-anchor="middle" font-family="Arial" font-size="11">0</text>
<line x1="419.9" y1="56" x2="419.9" y2="410" stroke="#e8e8e8"/>
<text x="419.9" y="436" text-anchor="middle" font-family="Arial" font-size="11">0.25</text>
<line x1="609.7" y1="56" x2="609.7" y2="410" stroke="#e8e8e8"/>
<text x="609.7" y="436" text-anchor="middle" font-family="Arial" font-size="11">0.5</text>
<line x1="799.6" y1="56" x2="799.6" y2="410" stroke="#e8e8e8"/>
<text x="799.6" y="436" text-anchor="middle" font-family="Arial" font-size="11">0.75</text>
<line x1="989.5" y1="56" x2="989.5" y2="410" stroke="#e8e8e8"/>
<text x="989.5" y="436" text-anchor="middle" font-family="Arial" font-size="11">1</text>
<text x="220" y="72.3" text-anchor="end" font-family="Arial" font-size="12">RAG-only deletion</text>
<rect x="230" y="56.0" width="648.0" height="24" fill="#2f6fbb" rx="3"/>
<text x="884.0" y="72.3" font-family="Arial" font-size="12">0.853</text>
<text x="220" y="182.3" text-anchor="end" font-family="Arial" font-size="12">adapter-only unlearning</text>
<rect x="230" y="166.0" width="705.0" height="24" fill="#2f6fbb" rx="3"/>
<text x="941.0" y="182.3" font-family="Arial" font-size="12">0.928</text>
<text x="220" y="292.3" text-anchor="end" font-family="Arial" font-size="12">full provenance purge</text>
<rect x="230" y="276.0" width="326.5" height="24" fill="#2f6fbb" rx="3"/>
<text x="562.5" y="292.3" font-family="Arial" font-size="12">0.43</text>
<text x="220" y="402.3" text-anchor="end" font-family="Arial" font-size="12">synthetic derivative retained</text>
<rect x="230" y="386.0" width="705.0" height="24" fill="#2f6fbb" rx="3"/>
<text x="941.0" y="402.3" font-family="Arial" font-size="12">0.928</text>
</svg>