<svg xmlns="http://www.w3.org/2000/svg" width="980" height="460" viewBox="0 0 980 460">
<rect width="100%" height="100%" fill="white"/>
<text x="490.0" y="30" text-anchor="middle" font-family="Arial" font-size="20" font-weight="700">ADCU Failure Detection Across Audit Budgets</text>
<line x1="230.0" y1="56" x2="230.0" y2="410" stroke="#e8e8e8"/>
<text x="230.0" y="436" text-anchor="middle" font-family="Arial" font-size="11">0</text>
<line x1="406.2" y1="56" x2="406.2" y2="410" stroke="#e8e8e8"/>
<text x="406.2" y="436" text-anchor="middle" font-family="Arial" font-size="11">0.25</text>
<line x1="582.5" y1="56" x2="582.5" y2="410" stroke="#e8e8e8"/>
<text x="582.5" y="436" text-anchor="middle" font-family="Arial" font-size="11">0.5</text>
<line x1="758.8" y1="56" x2="758.8" y2="410" stroke="#e8e8e8"/>
<text x="758.8" y="436" text-anchor="middle" font-family="Arial" font-size="11">0.75</text>
<line x1="935.0" y1="56" x2="935.0" y2="410" stroke="#e8e8e8"/>
<text x="935.0" y="436" text-anchor="middle" font-family="Arial" font-size="11">1</text>
<text x="220" y="72.3" text-anchor="end" font-family="Arial" font-size="12">budget=12</text>
<rect x="230" y="56.0" width="681.5" height="24" fill="#2f6fbb" rx="3"/>
<text x="917.5" y="72.3" font-family="Arial" font-size="12">0.967</text>
<text x="220" y="237.3" text-anchor="end" font-family="Arial" font-size="12">budget=24</text>
<rect x="230" y="221.0" width="705.0" height="24" fill="#2f6fbb" rx="3"/>
<text x="941.0" y="237.3" font-family="Arial" font-size="12">1</text>
<text x="220" y="402.3" text-anchor="end" font-family="Arial" font-size="12">budget=48</text>
<rect x="230" y="386.0" width="705.0" height="24" fill="#2f6fbb" rx="3"/>
<text x="941.0" y="402.3" font-family="Arial" font-size="12">1</text>
</svg>